# Alias OBJ Model File
# Exported from SketchUp, (c) 2000-2012 Trimble Navigation Limited
# File units = meters

mtllib 3D road.mtl

g Mesh1 Model

usemtl FrontColor
v 0 0 -0
vt 0 0
vn 0 -1 -0
v 0 0 -5
vt 0 196.85
v 1.2 0 -5
vt -47.2441 196.85
v 1.2 0 -0
vt -47.2441 0
f 1/1/1 2/2/1 3/3/1 4/4/1 

usemtl Blacktop_Old_01
vt -8.2021 0
vn -1 0 -0
v 0 1 -0
vt 0 1.64042
v 0 1 -5
vt -8.2021 1.64042
f 2/5/2 1/1/2 5/6/2 6/7/2 

vn 3.15654e-36 4.94833e-37 1
vt 1.9685 -3.07472e-72
v 1.2 0.435799 -0
vt 1.9685 0.714893
v 1.2 0.580311 -0
vt 1.9685 0.951953
v 1.2 0.640155 -2.39507e-35
vt 1.9685 1.05012
v 1.2 0.7 -0
vt 1.9685 1.14829
v 1.2 1 -0
vt 1.9685 1.64042
v 1 1 -0
vt 1.64042 1.64042
f 1/1/3 4/8/3 7/9/3 8/10/3 9/11/3 10/12/3 11/13/3 12/14/3 5/6/3 

usemtl FrontColor
vt -47.2441 17.1574
vn 0 0 -1
v 1.7 0.435799 -0
vt -66.9291 17.1574
v 1.7 0 -0
vt -66.9291 0
f 7/15/4 13/16/4 14/17/4 4/4/4 

vt -47.2441 22.8469
v 8.2 0.580311 -0
vt -322.835 22.8469
v 8.2 0.435799 -0
vt -322.835 17.1574
v 7.7 0.435799 -0
vt -303.15 17.1574
f 7/15/4 8/18/4 15/19/4 16/20/4 17/21/4 13/16/4 

vn 1.71077e-36 -2.00108e-34 -1
vt -47.2441 25.203
v 8.2 0.640155 -0
vt -322.835 25.203
f 8/18/5 9/22/5 18/23/5 15/19/5 

v 7.7 0.8 -0
vt -303.15 31.4961
vn 1.08401e-35 -5.90409e-34 -1
v 7.7 0.7 -0
vt -303.15 27.5591
v 8.2 0.7 -0
vt -322.835 27.5591
vt -47.2441 27.5591
v 1.7 0.7 -0
vt -66.9291 27.5591
v 1.7 0.8 -0
vt -66.9291 31.4961
v 1.8 0.8 -3.51692e-34
vt -70.8661 31.4961
v 7.6 0.8 -0
vt -299.213 31.4961
f 19/24/6 20/25/6 21/26/6 18/23/6 9/22/6 10/27/6 22/28/6 23/29/6 24/30/6 25/31/6 

vt 0 31.4961
v 7.7 0.8 -5
vt -196.85 31.4961
v 7.7 0.7 -5
vt -196.85 27.5591
vt 0 27.5591
f 19/32/2 26/33/2 27/34/2 20/35/2 

vt -303.15 0
vt -299.213 0
v 7.6 0.8 -5
vt -299.213 196.85
vt -303.15 196.85
f 19/36/1 25/37/1 28/38/1 26/39/1 

v 4.775 0.8 -1.06441
vt -187.992 41.9058
f 25/37/1 29/40/1 28/38/1

v 4.625 0.8 -1.06441
vt -182.087 41.9058
f 25/37/1 30/41/1 29/40/1

vt -70.8661 1.38462e-32
f 24/42/1 30/41/1 25/37/1

v 4.625 0.8 -4.49107
vt -182.087 176.814
f 30/41/1 24/42/1 31/43/1

v 1.8 0.8 -5
vt -70.8661 196.85
f 32/44/1 31/43/1 24/42/1

f 31/43/1 32/44/1 28/38/1

v 1.7 0 -5
vt 66.9291 4.44089e-14
vn -1.61275e-16 2.25597e-16 1
v 7.7 0 -5
vt 303.15 4.44089e-14
vt 303.15 27.5591
vt 303.15 31.4961
vt 299.213 31.4961
vt 70.8661 31.4961
v 1.7 0.8 -5
vt 66.9291 31.4961
v 1.7 0.7 -5
vt 66.9291 27.5591
f 33/45/7 34/46/7 27/47/7 26/48/7 28/49/7 32/50/7 35/51/7 36/52/7 

vt -66.9291 196.85
v 7.7 0 -0
f 33/53/1 34/39/1 37/36/1 14/17/1 

v 8.2 0 -5
vt -322.835 196.85
v 9.4 0 -5
vt -370.079 196.85
v 9.4 0 -0
vt -370.079 0
v 8.2 0 -0
vt -322.835 0
f 38/54/1 39/55/1 40/56/1 41/57/1 37/36/1 34/39/1 

vt 322.835 0
vn 0 0 1
vt 370.079 0
v 9.4 1 -5
vt 370.079 39.3701
v 8.4 1 -5
vt 330.709 39.3701
v 8.2 1 -5
vt 322.835 39.3701
v 8.2 0.7 -5
vt 322.835 27.5591
f 38/58/8 39/59/8 42/60/8 43/61/8 44/62/8 45/63/8 

usemtl Blacktop_Old_01
vt 8.2021 1.64042
vn 1 0 -0
v 9.4 1 -0
v 9.4 0.7 -0
vt 0 1.14829
v 9.4 0.640155 -2.39507e-35
vt 3.92893e-35 1.05012
v 9.4 0.580311 -0
vt 0 0.951953
v 9.4 0.435799 -0
vt 0 0.714893
vt 8.2021 0
f 42/64/9 46/6/9 47/65/9 48/66/9 49/67/9 50/68/9 40/1/9 39/69/9 

usemtl FrontColor
vt -330.709 196.85
v 9.2 1 -0
vt -362.205 0
v 8.4 1 -0
vt -330.709 0
f 43/70/1 42/55/1 46/56/1 51/71/1 52/72/1 

usemtl Blacktop_Old_01
vt -28.8714 6.75696e-72
vn -3.09708e-36 -2.98463e-37 -1
vt -26.9029 8.57657e-72
vt -26.9029 0.714893
vt -26.9029 0.951953
vt -26.9029 1.05012
vt -26.9029 1.14829
v 8.2 1 -0
vt -26.9029 1.64042
vt -27.231 1.64042
vt -28.5433 1.64042
vt -28.8714 1.64042
vt -28.8714 1.14829
vt -28.8714 1.05012
vt -28.8714 0.951953
vt -28.8714 0.714893
f 40/73/10 41/74/10 16/75/10 15/76/10 18/77/10 21/78/10 53/79/10 52/80/10 51/81/10 46/82/10 47/83/10 48/84/10 49/85/10 50/86/10 

usemtl FrontColor
f 41/57/4 37/36/4 17/21/4 16/20/4 

f 13/16/4 17/21/4 37/36/4 14/17/4 

vt 196.85 39.3701
vt 0 39.3701
vt 196.85 27.5591
f 44/87/9 53/88/9 21/35/9 45/89/9 

f 44/54/1 43/70/1 52/72/1 53/57/1 

f 21/57/1 20/36/1 27/39/1 45/54/1 

vt 303.15 0
f 38/58/8 45/63/8 27/47/8 34/90/8 

f 33/53/1 14/17/1 4/4/1 3/3/1 

vt 47.2441 0
vt 66.9291 0
v 1.2 0.7 -5
vt 47.2441 27.5591
f 3/91/8 33/92/8 36/52/8 54/93/8 

f 54/3/1 36/53/1 22/17/1 10/4/1 

f 23/32/2 35/33/2 36/34/2 22/35/2 

f 35/53/1 32/44/1 24/42/1 23/17/1 

vt -1.53477e-14 39.3701
vn -1 0 -3.2486e-16
v 1.2 1 -5
vt -196.85 39.3701
vt -1.53477e-14 27.5591
f 11/94/11 55/95/11 54/34/11 10/96/11 

usemtl _Concrete_Aggregate_Smoke_1
vt 3.93701 16.4042
vn 0 1 -0
v 1 1 -5
vt 3.28084 16.4042
vt 3.28084 0
vt 3.93701 0
f 55/97/12 56/98/12 12/99/12 11/100/12 

usemtl Blacktop_Old_01
vt -1.9685 0
vt -1.64042 1.64042
vt -1.9685 1.64042
vt -1.9685 1.14829
f 3/101/4 2/1/4 6/6/4 56/102/4 55/103/4 54/104/4 

usemtl _Stone_Pavers_Flagstone_Gray_1
vt 0.546807 0
vt 0.546807 2.05052
vt 0 2.05052
f 5/1/12 12/105/12 56/106/12 6/107/12 

usemtl FrontColor
v 4.775 0.8 -4.49107
vt -187.992 176.814
f 31/43/1 28/38/1 57/108/1

v 4.775 0.8 -3.19806
vt -187.992 125.908
f 57/108/1 28/38/1 58/109/1

v 4.775 0.8 -2.12881
vt -187.992 83.8116
f 58/109/1 28/38/1 59/110/1

f 59/110/1 28/38/1 29/40/1

v 4.625 0.8 -2.12881
vt -182.087 83.8116
f 59/110/1 29/40/1 30/41/1 60/111/1 

v 4.625 0.8 -3.19806
vt -182.087 125.908
f 30/41/1 61/112/1 60/111/1

f 30/41/1 31/43/1 61/112/1

f 57/108/1 58/109/1 61/112/1 31/43/1 

f 58/109/1 60/111/1 61/112/1

f 60/111/1 58/109/1 59/110/1

